<?xml version="1.0" encoding="utf-8"?>
<!-- Generator: Adobe Illustrator 15.0.2, SVG Export Plug-In . SVG Version: 6.00 Build 0)  -->
<!DOCTYPE svg PUBLIC "-//W3C//DTD SVG 1.1//EN" "http://www.w3.org/Graphics/SVG/1.1/DTD/svg11.dtd">
<svg version="1.1" id="svg2624" xmlns:svg="http://www.w3.org/2000/svg"
	 xmlns="http://www.w3.org/2000/svg" xmlns:xlink="http://www.w3.org/1999/xlink" x="0px" y="0px" width="566.93px"
	 height="566.93px" viewBox="17.716 -4.235 566.93 566.93" enable-background="new 17.716 -4.235 566.93 566.93"
	 xml:space="preserve">
<g id="layer1" transform="translate(-88.274013,-236.8406)">
	<g id="g2636" transform="matrix(5.1932637,0,0,5.1932637,-352.43972,-3168.5758)">
		<path id="path173" fill="#FDB813" d="M102.425,659.149h80.864c7.815,0,14.151,6.336,14.151,14.152v72.408
			c0,7.815-6.336,14.151-14.151,14.151h-80.864c-7.815,0-14.151-6.336-14.151-14.151v-72.408
			C88.274,665.486,94.61,659.149,102.425,659.149"/>
		<path id="path175" d="M139.354,712.518v0.125v3.125c-0.13-0.171-0.224-0.337-0.437-0.438c-0.361-0.17-0.814-0.281-1.438-0.281
			h-1.656c-1.306,0-2.215,0.181-2.781,0.656c-0.567,0.475-0.75,1.214-0.75,2.25v1.156c0,1.13,0.372,1.824,1,2.25
			c0.628,0.426,1.452,0.562,2.437,0.562h1.531c0.577,0,1.105-0.088,1.531-0.281c0.299-0.136,0.441-0.406,0.625-0.656v0.688v0.156
			h0.156h1.031h0.125v-0.156v-9.031v-0.125h-0.125h-1.125H139.354z M143.323,712.518v0.125v1.188v0.156h0.156h1.063h0.156v-0.156
			v-1.188v-0.125h-0.156h-1.063H143.323z M116.854,715.049c-0.382,0-0.815,0.054-1.188,0.219c-0.259,0.115-0.429,0.38-0.625,0.625
			v-0.562v-0.188h-0.156h-1.031h-0.125v0.188v6.344v0.156h0.125h1.125h0.125v-0.156v-4.063c0-0.377,0.128-0.718,0.375-0.969
			c0.247-0.251,0.622-0.375,1.156-0.375h0.656c0.947,0,1.49,0.04,1.75,0.25c0.13,0.105,0.195,0.247,0.25,0.469
			c0.055,0.222,0.094,0.519,0.094,0.906v0.281v0.156h0.156h0.969h0.156v-0.156v-0.75c0-0.802-0.163-1.385-0.625-1.781
			c-0.462-0.396-1.166-0.594-2.188-0.594H116.854z M125.073,715.049c-0.974,0-1.625,0.115-2.094,0.406
			c-0.469,0.291-0.719,0.762-0.719,1.375v0.313v0.156h0.156h1.094h0.156v-0.156v-0.219c0-0.236,0.063-0.351,0.25-0.469
			c0.187-0.117,0.526-0.187,1.188-0.187h1.562c0.818,0,1.443,0.029,1.781,0.187c0.169,0.079,0.266,0.168,0.344,0.313
			c0.077,0.145,0.125,0.355,0.125,0.625v0.875c-0.167-0.183-0.333-0.352-0.594-0.437c-0.377-0.124-0.858-0.188-1.562-0.188h-1.719
			c-0.941,0-1.683,0.036-2.219,0.281c-0.268,0.123-0.483,0.344-0.625,0.594c-0.142,0.25-0.219,0.557-0.219,0.937v0.375
			c0,0.618,0.151,1.161,0.5,1.531c0.349,0.37,0.853,0.562,1.688,0.562h2.594c0.828,0,1.357-0.032,1.719-0.156
			c0.217-0.074,0.312-0.261,0.437-0.406v0.313v0.156h0.156h1.031h0.187v-0.156v-4.25c0-0.985-0.368-1.633-1-1.969
			c-0.632-0.336-1.494-0.406-2.5-0.406H125.073z M150.667,715.049c-1.03,0-1.956,0.121-2.625,0.531
			c-0.669,0.41-1.062,1.165-1.062,2.25v1.344c0,1.085,0.393,1.808,1.062,2.219c0.669,0.41,1.596,0.531,2.625,0.531h1.531
			c1.03,0,1.925-0.121,2.594-0.531c0.669-0.41,1.062-1.134,1.062-2.219v-1.344c0-1.085-0.394-1.84-1.062-2.25
			c-0.669-0.41-1.564-0.531-2.594-0.531H150.667z M143.323,715.143v0.188v6.344v0.156h0.156h1.063h0.156v-0.156v-6.344v-0.188
			h-0.156h-1.063H143.323z M135.729,716.268h1.469c0.715,0,1.239,0.027,1.594,0.25c0.354,0.222,0.562,0.614,0.562,1.344v1.219
			c0,0.557-0.119,0.975-0.406,1.25c-0.287,0.275-0.786,0.406-1.562,0.406h-1.719c-0.856,0-1.356-0.118-1.625-0.375
			c-0.269-0.257-0.375-0.68-0.375-1.281v-1.25c0-0.71,0.181-1.094,0.5-1.313S135.003,716.268,135.729,716.268z M150.354,716.268
			h2.187c0.612,0,1.078,0.024,1.406,0.25c0.329,0.226,0.531,0.633,0.531,1.344v1.281c0,0.711-0.203,1.055-0.531,1.281
			c-0.328,0.226-0.794,0.313-1.406,0.313h-2.187c-0.612,0-1.109-0.087-1.438-0.313c-0.328-0.226-0.562-0.57-0.562-1.281v-1.281
			c0-0.711,0.234-1.118,0.562-1.344C149.245,716.292,149.742,716.268,150.354,716.268z M125.01,718.862h1.625
			c0.82,0,1.422,0.033,1.781,0.156c0.18,0.062,0.3,0.148,0.375,0.25c0.075,0.102,0.125,0.242,0.125,0.438v0.25
			c0,0.175-0.05,0.313-0.125,0.406s-0.178,0.157-0.375,0.219c-0.393,0.123-1.093,0.156-2.062,0.156h-1.375
			c-0.726,0-1.149-0.058-1.344-0.187c-0.097-0.065-0.151-0.18-0.188-0.281c-0.037-0.101-0.031-0.206-0.031-0.375v-0.187
			c0-0.187-0.014-0.336,0.031-0.438c0.045-0.102,0.109-0.189,0.219-0.25C123.885,718.896,124.326,718.862,125.01,718.862z
			 M136.51,725.674v19.375h5.219v-13.906h0.031l7.031,13.906h4l7.031-13.906h0.031v13.906h5.219v-19.375h-8.219l-6.063,12.469
			l-6.063-12.469H136.51z M113.791,725.862v19.344h5.938v-6.594h13.594v-4.5h-13.594v-3.594h14.281v-4.656H113.791z
			 M180.354,725.862l-13.125,8.375v7.094h14.281v3.875h5.343v-3.875h2.719v-4.344h-2.719v-11.125H180.354z M181.51,730.518v6.469
			h-9.875v-0.031L181.51,730.518z"/>
	</g>
</g>
</svg>
